<svg xmlns="http://www.w3.org/2000/svg" viewBox="0 0 800 420" font-family="Segoe UI, sans-serif">
<rect width="800" height="420" fill="#ffffff" rx="8"/>
<text x="64" y="30" fill="#1f2328" font-size="17" font-weight="700">★ Star History — timoncool/MiniMax-Music3-Studio</text>
<text x="776" y="30" fill="#1f2328" font-size="14" text-anchor="end">31 stars · updated 2026-08-24</text>
<line x1="64" y1="364.0" x2="776" y2="364.0" stroke="#d1d9e0" stroke-width="1"/><text x="54" y="368.0" fill="#1f2328" font-size="13" text-anchor="end">0</text><line x1="64" y1="282.5" x2="776" y2="282.5" stroke="#d1d9e0" stroke-width="1"/><text x="54" y="286.5" fill="#1f2328" font-size="13" text-anchor="end">8</text><line x1="64" y1="200.9" x2="776" y2="200.9" stroke="#d1d9e0" stroke-width="1"/><text x="54" y="204.9" fill="#1f2328" font-size="13" text-anchor="end">16</text><line x1="64" y1="129.5" x2="776" y2="129.5" stroke="#d1d9e0" stroke-width="1"/><text x="54" y="133.5" fill="#1f2328" font-size="13" text-anchor="end">23</text><line x1="64" y1="48.0" x2="776" y2="48.0" stroke="#d1d9e0" stroke-width="1"/><text x="54" y="52.0" fill="#1f2328" font-size="13" text-anchor="end">31</text>
<path d="M64.0,364.0 L64.0,353.8 L72.3,343.6 L75.7,333.4 L158.6,323.2 L175.9,313.0 L188.6,302.8 L221.3,292.6 L267.1,282.5 L267.2,272.3 L278.0,262.1 L280.9,251.9 L285.4,241.7 L286.3,231.5 L288.4,221.3 L297.0,211.1 L301.1,200.9 L313.9,190.7 L324.9,180.5 L351.2,170.3 L351.5,160.1 L386.3,149.9 L544.5,139.7 L552.6,129.5 L570.9,119.4 L605.7,109.2 L611.7,99.0 L612.8,88.8 L618.2,78.6 L726.0,68.4 L735.6,58.2 L774.3,48.0 L776.0,48.0" fill="none" stroke="#0969da" stroke-width="2.5" stroke-linejoin="round"/>
<circle cx="776.0" cy="48.0" r="4" fill="#0969da"/>
<text x="64.0" y="388" fill="#1f2328" font-size="13" text-anchor="middle">Aug 18, 2026</text><text x="301.3" y="388" fill="#1f2328" font-size="13" text-anchor="middle">Aug 20, 2026</text><text x="538.7" y="388" fill="#1f2328" font-size="13" text-anchor="middle">Aug 22, 2026</text><text x="776.0" y="388" fill="#1f2328" font-size="13" text-anchor="middle">Aug 24, 2026</text>
</svg>